<svg width="12" height="13" viewBox="0 0 12 13" fill="none" xmlns="http://www.w3.org/2000/svg">
<g clip-path="url(#clip0_8_674)">
<path d="M5.91449 6.28043C6.70862 6.28043 7.39627 5.99561 7.95813 5.43367C8.51999 4.87181 8.80481 4.18434 8.80481 3.39013C8.80481 2.59618 8.51999 1.90862 7.95804 1.34658C7.39609 0.784819 6.70853 0.5 5.91449 0.5C5.12027 0.5 4.4328 0.784819 3.87094 1.34668C3.30908 1.90853 3.02417 2.59609 3.02417 3.39013C3.02417 4.18434 3.30908 4.8719 3.87103 5.43376C4.43298 5.99552 5.12054 6.28043 5.91449 6.28043Z" fill="url(#paint0_linear_8_674)"/>
<path d="M10.9718 9.72737C10.9556 9.49355 10.9228 9.23848 10.8745 8.96914C10.8258 8.69778 10.7631 8.44125 10.688 8.20678C10.6105 7.96444 10.505 7.72512 10.3747 7.49578C10.2393 7.25775 10.0804 7.05047 9.90207 6.87991C9.71558 6.70148 9.48724 6.55801 9.22321 6.45337C8.96008 6.34927 8.66849 6.29654 8.35657 6.29654C8.23407 6.29654 8.1156 6.3468 7.88681 6.49576C7.746 6.58758 7.5813 6.69379 7.39746 6.81125C7.24026 6.91141 7.02731 7.00525 6.76428 7.09021C6.50766 7.17324 6.2471 7.21536 5.98993 7.21536C5.73276 7.21536 5.47229 7.17324 5.21539 7.09021C4.95264 7.00534 4.73969 6.9115 4.58267 6.81134C4.40057 6.69498 4.23578 6.58877 4.09286 6.49567C3.86435 6.34671 3.74579 6.29645 3.62329 6.29645C3.31128 6.29645 3.01978 6.34927 2.75674 6.45346C2.49289 6.55792 2.26447 6.70138 2.07779 6.88C1.89954 7.05066 1.74051 7.25784 1.60538 7.49578C1.4751 7.72512 1.36963 7.96435 1.29199 8.20687C1.21701 8.44134 1.1543 8.69778 1.10559 8.96914C1.05734 9.23812 1.02457 9.49327 1.00836 9.72765C0.992432 9.95726 0.984375 10.1956 0.984375 10.4363C0.984375 11.0627 1.1835 11.5698 1.57617 11.9438C1.96399 12.3128 2.47714 12.5 3.10117 12.5H8.87924C9.50327 12.5 10.0162 12.3129 10.4041 11.9438C10.7969 11.57 10.996 11.0628 10.996 10.4362C10.9959 10.1944 10.9878 9.95589 10.9718 9.72737Z" fill="url(#paint1_linear_8_674)"/>
</g>
<defs>
<linearGradient id="paint0_linear_8_674" x1="3.02417" y1="3.39022" x2="8.80481" y2="3.39022" gradientUnits="userSpaceOnUse">
<stop stop-color="#3D3A8B"/>
<stop offset="1" stop-color="#A556F6"/>
</linearGradient>
<linearGradient id="paint1_linear_8_674" x1="0.984375" y1="9.39824" x2="10.996" y2="9.39824" gradientUnits="userSpaceOnUse">
<stop stop-color="#3D3A8B"/>
<stop offset="1" stop-color="#A556F6"/>
</linearGradient>
<clipPath id="clip0_8_674">
<rect width="12" height="12" fill="white" transform="translate(0 0.5)"/>
</clipPath>
</defs>
</svg>
