<svg width="20" height="20" viewBox="0 0 20 20" fill="none" xmlns="http://www.w3.org/2000/svg">
<path d="M10.0234 10C10.0234 8.15907 11.5158 6.66669 13.3568 6.66669C15.1977 6.66669 16.6901 8.15911 16.6901 10C16.6901 11.841 15.1977 13.3333 13.3568 13.3333C11.5158 13.3333 10.0234 11.8409 10.0234 10Z" fill="#00BCFF"/>
<path d="M3.35669 16.6667C3.35669 14.8257 4.84907 13.3334 6.69001 13.3334L8.46638 12.3955L10.0233 13.3334V16.6667C10.0233 18.5077 8.53095 20 6.69001 20C4.84907 20 3.35669 18.5076 3.35669 16.6667Z" fill="#00CF7F"/>
<path d="M10.0234 0L8.20959 3.15117L10.0234 6.66664H13.31C15.151 6.66664 16.6433 5.17426 16.6433 3.33332C16.6433 1.49238 15.1509 0 13.31 0H10.0234Z" fill="#FF7361"/>
<path d="M3.30994 3.33332C3.30994 5.17426 4.80232 6.66664 6.64326 6.66664L8.4115 7.34961L10.0233 6.66664V0H6.64322C4.80232 0 3.30994 1.49238 3.30994 3.33332Z" fill="#FF4D12"/>
<path d="M3.35669 9.99999C3.35669 11.841 4.84907 13.3333 6.69001 13.3333H10.0233V6.66663H6.69001C4.84907 6.66663 3.35669 8.15905 3.35669 9.99999Z" fill="#B659FF"/>
</svg>
