<svg width="20" height="20" viewBox="0 0 20 20" fill="none" xmlns="http://www.w3.org/2000/svg">
<g clip-path="url(#clip0_51_21)">
<path d="M1.25935 0.66208L2.55739 17.2682C2.57687 17.5175 2.74566 17.7302 2.98411 17.8058L9.81442 19.9713C9.93521 20.0096 10.0649 20.0096 10.1857 19.9713L17.016 17.8058C17.2544 17.7302 17.4232 17.5175 17.4427 17.2682L18.7408 0.66208C18.7687 0.305058 18.4865 0 18.1284 0H1.87172C1.51364 0 1.23148 0.305058 1.25935 0.66208ZM15.412 5.81439H6.95244L7.20775 8.16866H15.228L14.7034 14.8804L10.0001 16.3715L5.29678 14.8804L5.02268 11.3739H7.49134V13.0939L10.066 13.7849L12.6254 13.0939L12.8239 10.3527H4.94285L4.41961 3.65862H15.5805L15.412 5.81439Z" fill="#FC490B"/>
</g>
<defs>
<clipPath id="clip0_51_21">
<rect width="20" height="20" fill="white"/>
</clipPath>
</defs>
</svg>
