<svg width="20" height="20" viewBox="0 0 20 20" fill="none" xmlns="http://www.w3.org/2000/svg">
<g clip-path="url(#clip0_2_18)">
<path d="M0 5C0 2.23858 2.23858 0 5 0H15C17.7614 0 20 2.23858 20 5V15C20 17.7614 17.7614 20 15 20H5C2.23858 20 0 17.7614 0 15V5Z" fill="#FFDF00"/>
<path d="M13.4349 15.6251C13.8377 16.2828 14.3619 16.7663 15.2889 16.7663C16.0676 16.7663 16.5651 16.3771 16.5651 15.8393C16.5651 15.1949 16.054 14.9666 15.1968 14.5917L14.727 14.3901C13.3708 13.8123 12.4698 13.0885 12.4698 11.5583C12.4698 10.1488 13.5438 9.07581 15.2222 9.07581C16.4171 9.07581 17.2762 9.49167 17.8952 10.5806L16.4317 11.5203C16.1095 10.9425 15.7619 10.7149 15.2222 10.7149C14.6717 10.7149 14.3228 11.0641 14.3228 11.5203C14.3228 12.0841 14.672 12.3123 15.4784 12.6615L15.9482 12.8628C17.5451 13.5476 18.4466 14.2456 18.4466 15.8152C18.4466 17.5072 17.1174 18.4342 15.3323 18.4342C13.5869 18.4342 12.4593 17.6025 11.9076 16.5123L13.4349 15.6251ZM6.79584 15.7879C7.09107 16.3117 7.35966 16.7546 8.00537 16.7546C8.62283 16.7546 9.01236 16.513 9.01236 15.5737V9.18315H10.8917V15.599C10.8917 17.545 9.7508 18.4308 8.08537 18.4308C6.5806 18.4308 5.70919 17.652 5.26599 16.7141L6.79584 15.7879Z" fill="#262626"/>
</g>
<defs>
<clipPath id="clip0_2_18">
<rect width="20" height="20" fill="white"/>
</clipPath>
</defs>
</svg>
