<svg width="20" height="20" viewBox="0 0 20 20" fill="none" xmlns="http://www.w3.org/2000/svg">
<g clip-path="url(#clip0_4_94)">
<path d="M10 20C9.92671 20 9.8547 19.9806 9.79128 19.9439L7.27745 18.4888C7.18183 18.4334 7.11213 18.3423 7.08367 18.2356C7.0552 18.1288 7.07032 18.0151 7.12568 17.9195C7.18105 17.8239 7.27213 17.7542 7.37888 17.7257C7.48564 17.6973 7.59933 17.7124 7.69494 17.7677L10 19.1016L17.5 14.7599V5.24008L10 0.898413L2.50002 5.24008V14.7599L3.17507 15.1506C3.83344 15.605 4.61677 15.8436 5.41669 15.8333C5.82644 15.8333 6.25002 15.8333 6.25002 14.1667V6.25C6.25002 6.1395 6.29392 6.03352 6.37206 5.95538C6.4502 5.87724 6.55618 5.83334 6.66669 5.83334C6.77719 5.83334 6.88317 5.87724 6.96132 5.95538C7.03946 6.03352 7.08335 6.1395 7.08335 6.25V14.1667C7.08335 15.4655 6.88153 16.6667 5.41669 16.6667C4.46787 16.6736 3.53887 16.3951 2.75026 15.8675L1.87461 15.3605C1.81135 15.324 1.75882 15.2714 1.72232 15.2081C1.68582 15.1448 1.66663 15.0731 1.66669 15V5C1.66663 4.92694 1.68582 4.85516 1.72232 4.79187C1.75882 4.72858 1.81134 4.67603 1.87461 4.63949L9.79128 0.0561545C9.8547 0.019372 9.92671 0 10 0C10.0733 0 10.1454 0.019372 10.2088 0.0561545L18.1254 4.63949C18.1887 4.67603 18.2412 4.72859 18.2777 4.79187C18.3142 4.85516 18.3334 4.92695 18.3334 5V15C18.3334 15.0731 18.3142 15.1449 18.2777 15.2081C18.2412 15.2714 18.1887 15.324 18.1254 15.3605L10.2088 19.9439C10.1453 19.9806 10.0733 20 10 20Z" fill="#388E3C"/>
<path d="M11.6666 14.1667C9.82867 14.1667 8.33331 13.0453 8.33331 11.6667C8.33331 11.5562 8.37721 11.4502 8.45535 11.372C8.53349 11.2939 8.63947 11.25 8.74998 11.25C8.86049 11.25 8.96647 11.2939 9.04461 11.372C9.12275 11.4502 9.16665 11.5562 9.16665 11.6667C9.16665 12.57 10.3116 13.3333 11.6666 13.3333C13.0216 13.3333 14.1666 12.57 14.1666 11.6667C14.1666 11.075 13.14 10.4167 11.6666 10.4167C9.79735 10.4167 8.33331 9.50196 8.33331 8.33334C8.33331 6.95476 9.82867 5.83334 11.6666 5.83334C13.5046 5.83334 15 6.95476 15 8.33334C15 8.44385 14.9561 8.54983 14.8779 8.62797C14.7998 8.70611 14.6938 8.75001 14.5833 8.75001C14.4728 8.75001 14.3668 8.70611 14.2887 8.62797C14.2105 8.54983 14.1666 8.44385 14.1666 8.33334C14.1666 7.43001 13.0216 6.66668 11.6666 6.66668C10.3116 6.66668 9.16665 7.43001 9.16665 8.33334C9.16665 8.92501 10.1933 9.58334 11.6666 9.58334C13.5359 9.58334 15 10.4981 15 11.6667C15 13.0453 13.5046 14.1667 11.6666 14.1667Z" fill="#388E3C"/>
<path d="M10 20C9.92671 20 9.8547 19.9806 9.79128 19.9439L7.27745 18.4888C7.18183 18.4334 7.11213 18.3423 7.08367 18.2356C7.0552 18.1288 7.07032 18.0151 7.12568 17.9195C7.18105 17.8239 7.27213 17.7542 7.37888 17.7257C7.48564 17.6973 7.59933 17.7124 7.69494 17.7677L10 19.1016L17.5 14.7599V5.24008L10 0.898413L2.50002 5.24008V14.7599L3.17507 15.1506C3.83344 15.605 4.61677 15.8436 5.41669 15.8333C5.82644 15.8333 6.25002 15.8333 6.25002 14.1667V6.25C6.25002 6.1395 6.29392 6.03352 6.37206 5.95538C6.4502 5.87724 6.55618 5.83334 6.66669 5.83334C6.77719 5.83334 6.88317 5.87724 6.96132 5.95538C7.03946 6.03352 7.08335 6.1395 7.08335 6.25V14.1667C7.08335 15.4655 6.88153 16.6667 5.41669 16.6667C4.46787 16.6736 3.53887 16.3951 2.75026 15.8675L1.87461 15.3605C1.81135 15.324 1.75882 15.2714 1.72232 15.2081C1.68582 15.1448 1.66663 15.0731 1.66669 15V5C1.66663 4.92694 1.68582 4.85516 1.72232 4.79187C1.75882 4.72858 1.81134 4.67603 1.87461 4.63949L9.79128 0.0561545C9.8547 0.019372 9.92671 0 10 0C10.0733 0 10.1454 0.019372 10.2088 0.0561545L18.1254 4.63949C18.1887 4.67603 18.2412 4.72859 18.2777 4.79187C18.3142 4.85516 18.3334 4.92695 18.3334 5V15C18.3334 15.0731 18.3142 15.1449 18.2777 15.2081C18.2412 15.2714 18.1887 15.324 18.1254 15.3605L10.2088 19.9439C10.1453 19.9806 10.0733 20 10 20Z" fill="url(#paint0_linear_4_94)"/>
<path d="M11.6666 14.1667C9.82867 14.1667 8.33331 13.0453 8.33331 11.6667C8.33331 11.5562 8.37721 11.4502 8.45535 11.372C8.53349 11.2939 8.63947 11.25 8.74998 11.25C8.86049 11.25 8.96647 11.2939 9.04461 11.372C9.12275 11.4502 9.16665 11.5562 9.16665 11.6667C9.16665 12.57 10.3116 13.3333 11.6666 13.3333C13.0216 13.3333 14.1666 12.57 14.1666 11.6667C14.1666 11.075 13.14 10.4167 11.6666 10.4167C9.79735 10.4167 8.33331 9.50196 8.33331 8.33334C8.33331 6.95476 9.82867 5.83334 11.6666 5.83334C13.5046 5.83334 15 6.95476 15 8.33334C15 8.44385 14.9561 8.54983 14.8779 8.62797C14.7998 8.70611 14.6938 8.75001 14.5833 8.75001C14.4728 8.75001 14.3668 8.70611 14.2887 8.62797C14.2105 8.54983 14.1666 8.44385 14.1666 8.33334C14.1666 7.43001 13.0216 6.66668 11.6666 6.66668C10.3116 6.66668 9.16665 7.43001 9.16665 8.33334C9.16665 8.92501 10.1933 9.58334 11.6666 9.58334C13.5359 9.58334 15 10.4981 15 11.6667C15 13.0453 13.5046 14.1667 11.6666 14.1667Z" fill="url(#paint1_linear_4_94)"/>
</g>
<defs>
<linearGradient id="paint0_linear_4_94" x1="1.20453" y1="5.8986" x2="18.7955" y2="14.1014" gradientUnits="userSpaceOnUse">
<stop stop-color="white" stop-opacity="0.2"/>
<stop offset="1" stop-color="white" stop-opacity="0"/>
</linearGradient>
<linearGradient id="paint1_linear_4_94" x1="1.20449" y1="5.8986" x2="18.7955" y2="14.1014" gradientUnits="userSpaceOnUse">
<stop stop-color="white" stop-opacity="0.2"/>
<stop offset="1" stop-color="white" stop-opacity="0"/>
</linearGradient>
<clipPath id="clip0_4_94">
<rect width="20" height="20" fill="white"/>
</clipPath>
</defs>
</svg>
