<svg width="20" height="20" viewBox="0 0 20 20" fill="none" xmlns="http://www.w3.org/2000/svg">
<path d="M16.5103 9.99999C17.3878 9.0408 18.0001 8.08162 18.2245 7.24489C18.4082 6.55101 18.347 5.91836 18.0613 5.40815C17.3266 4.14285 15.449 3.95917 13.2654 4.42856C12.5715 2.30611 11.4898 0.816315 10.0001 0.816315C8.6327 0.816315 7.46944 2.20407 6.73475 4.44897C6.46944 4.38774 6.22454 4.34693 5.95923 4.30611C3.95923 4.0204 2.51026 4.40815 1.93883 5.42856C1.65311 5.93876 1.59189 6.57142 1.77556 7.26529C2.00005 8.12244 2.6123 9.06121 3.48985 10.0204C2.6123 10.9796 2.00005 11.9388 1.77556 12.7755C1.59189 13.4694 1.65311 14.102 1.93883 14.6122C2.40821 15.4082 3.38781 15.8163 4.75515 15.8163C5.1225 15.8163 5.53066 15.7755 5.95923 15.7143C6.20413 15.6735 6.46944 15.6326 6.73475 15.5714C7.44903 17.8163 8.6327 19.2041 10.0001 19.2041C11.4898 19.2041 12.5715 17.6939 13.2449 15.5714C13.9592 15.7347 14.6327 15.8163 15.2654 15.8163C16.5511 15.8163 17.5511 15.449 18.0613 14.5918C18.347 14.102 18.4082 13.4694 18.2245 12.7755C18.0001 11.8979 17.3878 10.9796 16.5103 9.99999ZM3.00005 13.9796C2.8776 13.7551 2.85719 13.449 2.95923 13.0816C3.1225 12.4898 3.59189 11.7143 4.34699 10.8571C4.85719 11.3265 5.44903 11.7959 6.06128 12.2449C6.14291 13 6.24495 13.7143 6.40821 14.3877C4.65311 14.7551 3.3674 14.6122 3.00005 13.9796ZM5.20413 9.99999C5.42862 9.79591 5.69393 9.57142 5.95923 9.36734C5.95923 9.57142 5.95923 9.79591 5.95923 9.99999C5.95923 10.2245 5.95923 10.4286 5.95923 10.6326C5.69393 10.4082 5.44903 10.2041 5.20413 9.99999ZM6.06128 7.75509C5.42862 8.20407 4.85719 8.67346 4.34699 9.14284C3.57148 8.30611 3.1225 7.5306 2.95923 6.91836C2.85719 6.55101 2.8776 6.24489 3.00005 6.0204C3.22454 5.61223 3.85719 5.40815 4.71434 5.40815C5.20413 5.40815 5.77556 5.46938 6.40821 5.61223C6.26536 6.2857 6.14291 6.99999 6.06128 7.75509ZM12.5715 6.83672C12.3878 6.73468 12.2041 6.61223 12.0205 6.51019C11.8368 6.42856 11.6531 6.32652 11.4694 6.22448C11.7756 6.10203 12.1021 5.99999 12.3878 5.89795C12.449 6.22448 12.5103 6.5306 12.5715 6.83672ZM8.14291 4.18366C8.67352 2.83672 9.3674 2.0408 10.0001 2.0408C10.6327 2.0408 11.3266 2.83672 11.8572 4.16325C11.9388 4.34693 12.0001 4.55101 12.0817 4.75509C11.4082 4.95917 10.7143 5.22448 10.0205 5.5306C9.32658 5.22448 8.6123 4.95917 7.93883 4.75509C8.00005 4.5306 8.06128 4.34693 8.14291 4.18366ZM7.6123 5.91836C7.91842 5.99999 8.20413 6.12244 8.53066 6.22448C8.34699 6.32652 8.16332 6.42856 7.97964 6.5306C7.79597 6.63264 7.6123 6.75509 7.42862 6.85713C7.48985 6.5306 7.55107 6.22448 7.6123 5.91836ZM7.42862 13.1633C7.6123 13.2653 7.79597 13.3877 7.97964 13.4898C8.16332 13.5918 8.34699 13.6939 8.53066 13.7959C8.22454 13.9184 7.91842 14.0204 7.6123 14.102C7.55107 13.7755 7.48985 13.4694 7.42862 13.1633ZM11.8572 15.8775C11.3266 17.2041 10.6327 18 10.0001 18C9.3674 18 8.67352 17.2041 8.14291 15.8571C8.06128 15.6735 8.00005 15.4694 7.93883 15.2653C8.6123 15.0612 9.30617 14.7959 10.0205 14.4898C10.7143 14.7959 11.4082 15.0612 12.0817 15.2653C12.0001 15.4694 11.9388 15.6735 11.8572 15.8775ZM12.3878 14.0816C12.0817 13.9796 11.7756 13.8775 11.4694 13.7551C11.6531 13.653 11.8368 13.551 12.0205 13.449C12.2041 13.3673 12.3878 13.2449 12.5715 13.1428C12.5103 13.4694 12.449 13.7755 12.3878 14.0816ZM12.7552 11.5918C12.347 11.8775 11.898 12.1633 11.4082 12.4286C10.9388 12.6939 10.449 12.9388 10.0001 13.1633C9.53066 12.9388 9.06128 12.6939 8.59189 12.4286C8.10209 12.1633 7.67352 11.8775 7.24495 11.5918C7.20413 11.0816 7.18372 10.551 7.18372 10.0204C7.18372 9.48978 7.20413 8.95917 7.24495 8.44897C7.67352 8.16325 8.10209 7.89795 8.59189 7.61223C9.06128 7.34693 9.53066 7.10203 10.0001 6.87754C10.4694 7.10203 10.9388 7.34693 11.4082 7.61223C11.898 7.87754 12.3266 8.16325 12.7552 8.44897C12.796 8.95917 12.8164 9.48978 12.8164 10.0204C12.8164 10.551 12.796 11.0612 12.7552 11.5918ZM15.2654 5.40815C16.1429 5.40815 16.7756 5.63264 17.0205 6.0408C17.1429 6.26529 17.1633 6.57142 17.0613 6.93876C16.898 7.5306 16.4286 8.30611 15.6735 9.16325C15.1633 8.69387 14.5715 8.22448 13.9388 7.7755C13.8572 7.0408 13.7347 6.30611 13.5919 5.63264C14.2041 5.46938 14.7756 5.40815 15.2654 5.40815ZM14.0205 9.38774C14.2858 9.59182 14.5307 9.79591 14.7756 9.99999C14.5511 10.2041 14.2858 10.4286 14.0205 10.6326C14.0205 10.4082 14.0409 10.2041 14.0409 9.99999C14.0409 9.79591 14.0409 9.59182 14.0205 9.38774ZM17.0001 13.9796C16.6327 14.6122 15.347 14.7755 13.5715 14.4082C13.7347 13.7143 13.8368 13 13.9184 12.2653C14.5511 11.8163 15.1225 11.3469 15.6531 10.8775C16.4286 11.7143 16.8776 12.4898 17.0409 13.102C17.1429 13.4694 17.1225 13.7755 17.0001 13.9796Z" fill="url(#paint0_linear_4_70)"/>
<path d="M10.0001 8.16327C8.97966 8.16327 8.16333 8.9796 8.16333 10C8.16333 11.0204 8.97966 11.8367 10.0001 11.8367C11.0205 11.8367 11.8368 11.0204 11.8368 10C11.8368 8.9796 11.0205 8.16327 10.0001 8.16327ZM10.0001 10.6122C9.65313 10.6122 9.38782 10.3469 9.38782 10C9.38782 9.65307 9.65313 9.38776 10.0001 9.38776C10.347 9.38776 10.6123 9.65307 10.6123 10C10.6123 10.3469 10.347 10.6122 10.0001 10.6122Z" fill="url(#paint1_linear_4_70)"/>
<defs>
<linearGradient id="paint0_linear_4_70" x1="10.0001" y1="0.92856" x2="10.0001" y2="19.0936" gradientUnits="userSpaceOnUse">
<stop stop-color="#00EFD1"/>
<stop offset="1" stop-color="#00ACEA"/>
</linearGradient>
<linearGradient id="paint1_linear_4_70" x1="10.0001" y1="0.928575" x2="10.0001" y2="19.0936" gradientUnits="userSpaceOnUse">
<stop stop-color="#00EFD1"/>
<stop offset="1" stop-color="#00ACEA"/>
</linearGradient>
</defs>
</svg>
