<svg width="20" height="12" viewBox="0 0 20 12" fill="none" xmlns="http://www.w3.org/2000/svg">
<g clip-path="url(#clip0_4_74)">
<path d="M10 0C7.33333 0 5.66667 1.32987 5 3.98961C6 2.65974 7.16667 2.16104 8.5 2.49351C9.26074 2.6832 9.80448 3.23365 10.4063 3.84299C11.3868 4.83559 12.5215 5.98442 15 5.98442C17.6667 5.98442 19.3333 4.65455 20 1.99481C19 3.32468 17.8333 3.82338 16.5 3.49091C15.7393 3.30122 15.1955 2.75076 14.5937 2.14142C13.6132 1.14882 12.4785 0 10 0ZM5 5.98442C2.33333 5.98442 0.666667 7.31429 0 9.97403C1 8.64416 2.16667 8.14546 3.5 8.47792C4.26074 8.66761 4.80448 9.21807 5.40633 9.82741C6.38678 10.82 7.52152 11.9688 10 11.9688C12.6667 11.9688 14.3333 10.639 15 7.97922C14 9.30909 12.8333 9.80779 11.5 9.47533C10.7393 9.28563 10.1955 8.73518 9.59367 8.12584C8.61322 7.13324 7.47848 5.98442 5 5.98442Z" fill="#37BCF8"/>
</g>
<defs>
<clipPath id="clip0_4_74">
<rect width="20" height="12" fill="white"/>
</clipPath>
</defs>
</svg>
