<svg width="20" height="20" viewBox="0 0 20 20" fill="none" xmlns="http://www.w3.org/2000/svg">
<g clip-path="url(#clip0_4_30)">
<path d="M1.95312 0H18.0469C19.1255 0 20 0.874453 20 1.95312V18.0469C20 19.1255 19.1255 20 18.0469 20H1.95312C0.874453 20 0 19.1255 0 18.0469V1.95312C0 0.874453 0.874453 0 1.95312 0Z" fill="#3178C6"/>
<path d="M1.95312 0H18.0469C19.1255 0 20 0.874453 20 1.95312V18.0469C20 19.1255 19.1255 20 18.0469 20H1.95312C0.874453 20 0 19.1255 0 18.0469V1.95312C0 0.874453 0.874453 0 1.95312 0Z" fill="#3178C6"/>
<path fill-rule="evenodd" clip-rule="evenodd" d="M12.3804 15.915V17.8705C12.6983 18.0335 13.0743 18.1557 13.5084 18.2371C13.9424 18.3186 14.3999 18.3594 14.8808 18.3594C15.7097 18.3594 16.6171 18.2408 17.3262 17.7819C18.0318 17.3252 18.3594 16.5655 18.3594 15.7439C18.3594 15.1331 18.1699 14.5453 17.7419 14.1001C17.1002 13.4325 16.1983 13.1618 15.3882 12.7648C14.9824 12.566 14.4223 12.2573 14.4223 11.7351C14.4223 11.6007 14.457 11.4795 14.5263 11.3716C14.8048 10.9375 15.4236 10.8491 15.8957 10.8491C16.4315 10.8491 16.9968 10.969 17.4943 11.1913C17.6675 11.2687 17.8275 11.3583 17.9742 11.4602V9.63297C17.6767 9.51891 17.3517 9.43437 16.9991 9.37937C16.6466 9.32437 16.2421 9.29688 15.7856 9.29688C15.321 9.29688 14.8808 9.3468 14.4651 9.4466C14.0494 9.54641 13.6836 9.70223 13.3677 9.91406C13.0519 10.1259 12.8023 10.3958 12.6189 10.7238C12.4355 11.0517 12.3438 11.4438 12.3438 11.9001C12.3438 12.4827 12.5119 12.9797 12.8481 13.3912C13.1843 13.8027 13.6948 14.151 14.3795 14.4362C14.8402 14.6245 15.3191 14.8104 15.7336 15.09C16.0209 15.2838 16.2808 15.554 16.2808 15.9211C16.2808 16.1875 16.1302 16.4134 15.9109 16.5536C15.5866 16.7609 15.1712 16.8072 14.7952 16.8072C14.3713 16.8072 13.9516 16.7329 13.5358 16.5841C13.1202 16.4355 12.735 16.2124 12.3804 15.915ZM9.09297 11.097H11.6016V9.49219H4.60938V11.097H7.1057V18.2422H9.09297V11.097Z" fill="#262626"/>
</g>
<defs>
<clipPath id="clip0_4_30">
<rect width="20" height="20" rx="5" fill="white"/>
</clipPath>
</defs>
</svg>
