<svg width="20" height="20" viewBox="0 0 20 20" fill="none" xmlns="http://www.w3.org/2000/svg">
<g clip-path="url(#clip0_8_432)">
<path d="M5.99938 6.17234H4.89492L7.90599 14.6839L9.59168 9.86681L8.28475 6.17234H7.11944V5.3613H12.2798V6.17234H11.0714L14.0824 14.6839L15.1648 11.5909C16.5846 7.62808 14.0011 6.39366 14.0011 5.50926C14.0011 4.62487 14.718 3.90796 15.6024 3.90796C15.6502 3.90796 15.6967 3.91056 15.7422 3.9148C14.2437 2.50024 12.2232 1.63278 9.99988 1.63278C7.09478 1.63278 4.53581 3.11359 3.03571 5.3613H5.99929V6.17234H5.99938Z" fill="#00769D"/>
<path d="M1.63281 10C1.63281 13.2034 3.43332 15.9859 6.07725 17.3919L2.30129 6.71811C1.87116 7.72581 1.63281 8.83505 1.63281 10Z" fill="#00769D"/>
<path d="M17.2819 5.87692C17.4016 6.58163 17.3653 7.37368 17.1817 8.16881H17.215L17.0884 8.53033C17.0135 8.79136 16.9191 9.05839 16.8119 9.32077L13.9328 17.3865C16.5712 15.9788 18.3671 13.1993 18.3671 9.99997C18.3671 8.5008 17.9724 7.09392 17.2819 5.87692Z" fill="#00769D"/>
<path d="M7.41943 17.961C8.2323 18.2243 9.09936 18.3671 9.99997 18.3671C10.859 18.3671 11.6877 18.2375 12.4678 17.997L10.0203 11.0785L7.41943 17.961Z" fill="#00769D"/>
<path d="M17.071 2.92892C15.1823 1.04018 12.6711 0 9.99995 0C7.32886 0 4.81766 1.04018 2.92892 2.92892C1.04018 4.81766 0 7.32886 0 10C0 12.6711 1.04018 15.1823 2.92892 17.071C4.81766 18.9598 7.3289 20 10 20C12.6711 20 15.1823 18.9598 17.0711 17.071C18.9598 15.1823 20 12.6711 20 10C20 7.32886 18.9598 4.81766 17.071 2.92892ZM9.99995 19.2945C4.87493 19.2945 0.705424 15.125 0.705424 10C0.705424 4.87498 4.87493 0.705424 9.99995 0.705424C15.125 0.705424 19.2945 4.87498 19.2945 10C19.2945 15.125 15.125 19.2945 9.99995 19.2945Z" fill="#00769D"/>
</g>
<defs>
<clipPath id="clip0_8_432">
<rect width="20" height="20" fill="white"/>
</clipPath>
</defs>
</svg>
