<svg width="20" height="20" fill="none" xmlns="http://www.w3.org/2000/svg"><path d="M3.127 8.615c2.235.873 4.136 1.043 6.291-.315-.015.024-.442.655-1.563.979.237.324.56.695.56.695.72 0 1.422-.206 2.03-.6a1.54 1.54 0 0 0 .687-1.43 10.557 10.557 0 0 0-.68-2.826 3.314 3.314 0 0 0-2.786-2.123c-.11-.008-.19-.008-.237-.008l-.126.126c1.444.41 2.163 1.05 2.179 1.074a7.96 7.96 0 0 0-7.074-.048s.71-.702 2.281-1.073l-.094-.095c-.166 0-.324.016-.49.04a3.328 3.328 0 0 0-2.55 2.092 10.86 10.86 0 0 0-.687 2.952 1.524 1.524 0 0 0 .648 1.374 3.6 3.6 0 0 0 1.981.592s.285-.371.569-.703c-1.066-.315-1.5-.947-1.508-.97l.2.102c.12.061.243.117.369.165Zm1.239-.686a.936.936 0 0 1 0-1.871.936.936 0 0 1 0 1.87Zm3.22 0a.936.936 0 0 1 0-1.871.936.936 0 0 1 0 1.87Z" fill="#D4D4D4"/></svg>