<svg width="20" height="20" fill="none" xmlns="http://www.w3.org/2000/svg"><g clip-path="url(#a)"><path d="M6 .75c-3.315 0-6 2.64-6 5.896 0 2.606 1.719 4.815 4.103 5.594.3.056.41-.127.41-.284 0-.14-.005-.51-.008-1.002-1.669.355-2.021-.791-2.021-.791-.273-.68-.667-.863-.667-.863-.544-.365.042-.357.042-.357.602.04.918.607.918.607.535.901 1.405.641 1.748.49.054-.381.208-.64.38-.788-1.333-.148-2.733-.655-2.733-2.914 0-.643.232-1.169.617-1.582-.067-.149-.27-.748.053-1.56 0 0 .502-.158 1.65.604.48-.13.99-.196 1.5-.198.51.002 1.02.068 1.5.199 1.14-.763 1.642-.605 1.642-.605.323.812.12 1.411.06 1.56.383.413.615.939.615 1.582 0 2.266-1.402 2.764-2.737 2.909.21.177.405.539.405 1.091 0 .789-.008 1.423-.008 1.615 0 .154.105.338.413.28C10.282 11.459 12 9.246 12 6.646 12 3.39 9.313.75 6 .75Z" fill="#D4D4D4"/></g><defs><clipPath id="a"><path fill="#fff" transform="translate(0 .5)" d="M0 0h12v12H0z"/></clipPath></defs></svg>