<svg width="20" height="20" viewBox="0 0 12 12" fill="none" xmlns="http://www.w3.org/2000/svg">
<g clip-path="url(#clip0_57_2)">
<path d="M11.9882 3.52803C11.9601 2.89043 11.857 2.45208 11.7093 2.07224C11.5569 1.66906 11.3225 1.30809 11.0154 1.00801C10.7153 0.703262 10.352 0.466461 9.95345 0.316468C9.57142 0.168765 9.13536 0.0656561 8.49775 0.0375439C7.85538 0.00705093 7.65145 0 6.02223 0C4.39301 0 4.18908 0.00705093 3.54909 0.0351631C2.91148 0.0632753 2.47314 0.166475 2.09339 0.314087C1.69011 0.466461 1.32914 0.700882 1.02907 1.00801C0.72432 1.30809 0.487609 1.67144 0.337525 2.06995C0.189822 2.45208 0.0867133 2.88805 0.0586011 3.52565C0.0281081 4.16802 0.0210571 4.37195 0.0210571 6.00117C0.0210571 7.6304 0.0281081 7.83432 0.0562202 8.47431C0.0843324 9.11192 0.187533 9.55027 0.335236 9.9301C0.487609 10.3333 0.72432 10.6943 1.02907 10.9943C1.32914 11.2991 1.6925 11.5359 2.09101 11.6859C2.47314 11.8336 2.9091 11.9367 3.5468 11.9648C4.1867 11.993 4.39072 12 6.01994 12C7.64916 12 7.85309 11.993 8.49308 11.9648C9.13069 11.9367 9.56903 11.8336 9.94878 11.6859C10.7552 11.3741 11.3928 10.7365 11.7046 9.9301C11.8523 9.54798 11.9555 9.11192 11.9836 8.47431C12.0117 7.83432 12.0187 7.6304 12.0187 6.00117C12.0187 4.37195 12.0164 4.16802 11.9882 3.52803ZM10.9076 8.42743C10.8818 9.01348 10.7834 9.32995 10.7013 9.54093C10.4997 10.0637 10.0848 10.4786 9.56198 10.6802C9.35101 10.7623 9.03225 10.8607 8.44848 10.8865C7.81555 10.9147 7.62572 10.9216 6.02461 10.9216C4.4235 10.9216 4.23129 10.9147 3.60064 10.8865C3.01459 10.8607 2.69812 10.7623 2.48715 10.6802C2.22699 10.5841 1.99019 10.4317 1.79799 10.2325C1.59873 10.0379 1.44635 9.80346 1.3502 9.54331C1.26816 9.33233 1.16972 9.01348 1.14399 8.42981C1.11578 7.79687 1.10882 7.60695 1.10882 6.00584C1.10882 4.40473 1.11578 4.21252 1.14399 3.58197C1.16972 2.99592 1.26816 2.67945 1.3502 2.46847C1.44635 2.20823 1.59873 1.97152 1.80037 1.77922C1.99486 1.57996 2.22928 1.42759 2.48953 1.33153C2.70051 1.24948 3.01935 1.15104 3.60303 1.12522C4.23596 1.09711 4.42588 1.09006 6.0269 1.09006C7.63039 1.09006 7.82022 1.09711 8.45087 1.12522C9.03692 1.15104 9.35339 1.24948 9.56436 1.33153C9.82452 1.42759 10.0613 1.57996 10.2535 1.77922C10.4528 1.9738 10.6052 2.20823 10.7013 2.46847C10.7834 2.67945 10.8818 2.99821 10.9076 3.58197C10.9357 4.2149 10.9428 4.40473 10.9428 6.00584C10.9428 7.60695 10.9357 7.79449 10.9076 8.42743Z" fill="#D4D4D4"/>
<path d="M6.02227 2.91855C4.32043 2.91855 2.93964 4.29925 2.93964 6.00118C2.93964 7.70311 4.32043 9.08382 6.02227 9.08382C7.7242 9.08382 9.1049 7.70311 9.1049 6.00118C9.1049 4.29925 7.7242 2.91855 6.02227 2.91855ZM6.02227 8.00081C4.9182 8.00081 4.02264 7.10534 4.02264 6.00118C4.02264 4.89702 4.9182 4.00155 6.02227 4.00155C7.12643 4.00155 8.0219 4.89702 8.0219 6.00118C8.0219 7.10534 7.12643 8.00081 6.02227 8.00081Z" fill="#D4D4D4"/>
<path d="M9.94654 2.79665C9.94654 3.19407 9.6243 3.5163 9.22679 3.5163C8.82938 3.5163 8.50714 3.19407 8.50714 2.79665C8.50714 2.39914 8.82938 2.077 9.22679 2.077C9.6243 2.077 9.94654 2.39914 9.94654 2.79665Z" fill="#D4D4D4"/>
</g>
<defs>
<clipPath id="clip0_57_2">
<rect width="12" height="12" fill="white"/>
</clipPath>
</defs>
</svg>
