<svg width="12" height="13" viewBox="0 0 12 13" fill="none" xmlns="http://www.w3.org/2000/svg">
<g clip-path="url(#clip0_4_205)">
<path d="M11.9882 4.02803C11.9601 3.39043 11.857 2.95208 11.7093 2.57224C11.5569 2.16906 11.3225 1.80809 11.0154 1.50801C10.7153 1.20326 10.352 0.966461 9.95345 0.816468C9.57141 0.668765 9.13536 0.565656 8.49775 0.537544C7.85538 0.507051 7.65145 0.5 6.02223 0.5C4.393 0.5 4.18908 0.507051 3.54909 0.535163C2.91148 0.563275 2.47314 0.666475 2.09339 0.814087C1.69011 0.966461 1.32914 1.20088 1.02907 1.50801C0.724319 1.80809 0.487609 2.17144 0.337525 2.56995C0.189822 2.95208 0.0867133 3.38805 0.0586011 4.02565C0.0281081 4.66802 0.0210571 4.87195 0.0210571 6.50117C0.0210571 8.1304 0.0281081 8.33432 0.0562202 8.97431C0.0843324 9.61192 0.187533 10.0503 0.335236 10.4301C0.487609 10.8333 0.724319 11.1943 1.02907 11.4943C1.32914 11.7991 1.6925 12.0359 2.09101 12.1859C2.47314 12.3336 2.9091 12.4367 3.5468 12.4648C4.1867 12.493 4.39072 12.5 6.01994 12.5C7.64916 12.5 7.85309 12.493 8.49308 12.4648C9.13069 12.4367 9.56903 12.3336 9.94878 12.1859C10.7552 11.8741 11.3928 11.2365 11.7046 10.4301C11.8523 10.048 11.9555 9.61192 11.9836 8.97431C12.0117 8.33432 12.0187 8.1304 12.0187 6.50117C12.0187 4.87195 12.0164 4.66802 11.9882 4.02803ZM10.9076 8.92743C10.8818 9.51348 10.7834 9.82995 10.7013 10.0409C10.4997 10.5637 10.0848 10.9786 9.56198 11.1802C9.351 11.2623 9.03225 11.3607 8.44848 11.3865C7.81555 11.4147 7.62572 11.4216 6.02461 11.4216C4.4235 11.4216 4.23129 11.4147 3.60064 11.3865C3.01459 11.3607 2.69812 11.2623 2.48715 11.1802C2.22699 11.0841 1.99019 10.9317 1.79798 10.7325C1.59873 10.5379 1.44635 10.3035 1.3502 10.0433C1.26816 9.83233 1.16972 9.51348 1.14399 8.92981C1.11578 8.29687 1.10882 8.10695 1.10882 6.50584C1.10882 4.90473 1.11578 4.71252 1.14399 4.08197C1.16972 3.49592 1.26816 3.17945 1.3502 2.96847C1.44635 2.70823 1.59873 2.47152 1.80037 2.27922C1.99486 2.07996 2.22928 1.92759 2.48953 1.83153C2.70051 1.74948 3.01935 1.65104 3.60303 1.62522C4.23596 1.59711 4.42588 1.59006 6.0269 1.59006C7.63039 1.59006 7.82022 1.59711 8.45087 1.62522C9.03692 1.65104 9.35339 1.74948 9.56436 1.83153C9.82452 1.92759 10.0613 2.07996 10.2535 2.27922C10.4528 2.4738 10.6052 2.70823 10.7013 2.96847C10.7834 3.17945 10.8818 3.4982 10.9076 4.08197C10.9357 4.7149 10.9428 4.90473 10.9428 6.50584C10.9428 8.10695 10.9357 8.29449 10.9076 8.92743Z" fill="#D4D4D4"/>
<path d="M6.02227 3.41855C4.32043 3.41855 2.93964 4.79925 2.93964 6.50118C2.93964 8.20311 4.32043 9.58382 6.02227 9.58382C7.7242 9.58382 9.1049 8.20311 9.1049 6.50118C9.1049 4.79925 7.7242 3.41855 6.02227 3.41855ZM6.02227 8.50081C4.9182 8.50081 4.02264 7.60534 4.02264 6.50118C4.02264 5.39702 4.9182 4.50155 6.02227 4.50155C7.12643 4.50155 8.0219 5.39702 8.0219 6.50118C8.0219 7.60534 7.12643 8.50081 6.02227 8.50081Z" fill="#D4D4D4"/>
<path d="M9.94654 3.29665C9.94654 3.69407 9.6243 4.0163 9.22679 4.0163C8.82938 4.0163 8.50714 3.69407 8.50714 3.29665C8.50714 2.89914 8.82938 2.577 9.22679 2.577C9.6243 2.577 9.94654 2.89914 9.94654 3.29665Z" fill="#D4D4D4"/>
</g>
<defs>
<clipPath id="clip0_4_205">
<rect width="12" height="12" fill="white" transform="translate(0 0.5)"/>
</clipPath>
</defs>
</svg>
