<svg width="12" height="13" viewBox="0 0 12 13" fill="none" xmlns="http://www.w3.org/2000/svg">
<g clip-path="url(#clip0_9_743)">
<path d="M5.91449 6.28045C6.70862 6.28045 7.39618 5.99563 7.95813 5.43368C8.5199 4.87182 8.80481 4.18435 8.80481 3.39013C8.80481 2.59619 8.51999 1.90863 7.95804 1.34659C7.39609 0.78482 6.70853 0.5 5.91449 0.5C5.12027 0.5 4.4328 0.78482 3.87094 1.34668C3.30908 1.90854 3.02417 2.5961 3.02417 3.39013C3.02417 4.18435 3.30908 4.87191 3.87094 5.43377C4.43298 5.99553 5.12054 6.28045 5.91449 6.28045ZM4.36826 1.8439C4.79938 1.41278 5.30511 1.20322 5.91449 1.20322C6.52377 1.20322 7.0296 1.41278 7.46082 1.8439C7.89194 2.27511 8.10159 2.78094 8.10159 3.39013C8.10159 3.99951 7.89194 4.50524 7.46082 4.93645C7.0296 5.36767 6.52377 5.57723 5.91449 5.57723C5.3053 5.57723 4.79956 5.36757 4.36826 4.93645C3.93704 4.50533 3.72739 3.99951 3.72739 3.39013C3.72739 2.78094 3.93704 2.27511 4.36826 1.8439Z" fill="#D4D4D4"/>
<path d="M10.9718 9.72738C10.9556 9.49355 10.9228 9.23849 10.8745 8.96914C10.8258 8.69778 10.7631 8.44125 10.688 8.20678C10.6104 7.96444 10.505 7.72513 10.3746 7.49579C10.2393 7.25775 10.0804 7.05047 9.90207 6.87991C9.71558 6.70148 9.48724 6.55801 9.22321 6.45337C8.96008 6.34927 8.66849 6.29654 8.35657 6.29654C8.23407 6.29654 8.1156 6.3468 7.88681 6.49576C7.746 6.58758 7.5813 6.69379 7.39746 6.81125C7.24026 6.91141 7.02731 7.00525 6.76428 7.09021C6.50766 7.17325 6.2471 7.21536 5.98984 7.21536C5.73276 7.21536 5.4722 7.17325 5.21539 7.09021C4.95264 7.00534 4.73959 6.9115 4.58267 6.81134C4.40057 6.69498 4.23578 6.58878 4.09286 6.49567C3.86426 6.34671 3.74579 6.29645 3.62329 6.29645C3.31128 6.29645 3.01978 6.34927 2.75674 6.45346C2.49289 6.55792 2.26447 6.70138 2.07779 6.88C1.89944 7.05066 1.74051 7.25784 1.60538 7.49579C1.4751 7.72513 1.36963 7.96435 1.29199 8.20688C1.21701 8.44134 1.1543 8.69778 1.10559 8.96914C1.05725 9.23812 1.02457 9.49328 1.00836 9.72765C0.992432 9.95681 0.984375 10.1953 0.984375 10.4363C0.984375 11.0627 1.1835 11.5698 1.57617 11.9438C1.96399 12.3128 2.47705 12.5 3.10117 12.5H8.87924C9.50317 12.5 10.0162 12.3128 10.4041 11.9438C10.7969 11.5701 10.996 11.0628 10.996 10.4362C10.9959 10.1944 10.9878 9.9559 10.9718 9.72738ZM9.91928 11.4343C9.66302 11.6782 9.32281 11.7967 8.87915 11.7967H3.10117C2.65741 11.7967 2.3172 11.6782 2.06104 11.4344C1.80972 11.1952 1.68759 10.8686 1.68759 10.4363C1.68759 10.2114 1.69501 9.9894 1.70984 9.77627C1.7243 9.56716 1.75388 9.33746 1.79773 9.09338C1.84103 8.85232 1.89615 8.62609 1.9617 8.42129C2.0246 8.22491 2.11038 8.03045 2.21677 7.84314C2.3183 7.66461 2.43512 7.51144 2.56403 7.38803C2.6846 7.27258 2.83658 7.1781 3.01566 7.10724C3.18127 7.04169 3.3674 7.0058 3.56946 7.0004C3.59409 7.01349 3.63794 7.03848 3.70898 7.08481C3.85355 7.17901 4.02017 7.2865 4.20438 7.40414C4.41202 7.53653 4.67953 7.65609 4.99915 7.75927C5.3259 7.86493 5.65915 7.91858 5.98993 7.91858C6.32071 7.91858 6.65405 7.86493 6.98062 7.75937C7.30051 7.656 7.56793 7.53653 7.77585 7.40396C7.96436 7.28348 8.12631 7.17911 8.27087 7.08481C8.34192 7.03857 8.38577 7.01349 8.4104 7.0004C8.61255 7.0058 8.79868 7.04169 8.96439 7.10724C9.14337 7.1781 9.29535 7.27267 9.41592 7.38803C9.54483 7.51135 9.66165 7.66452 9.76318 7.84323C9.86966 8.03045 9.95554 8.225 10.0183 8.4212C10.084 8.62628 10.1392 8.85241 10.1824 9.09329C10.2262 9.33782 10.2558 9.56762 10.2703 9.77636V9.77654C10.2852 9.98885 10.2927 10.2108 10.2928 10.4363C10.2927 10.8687 10.1706 11.1952 9.91928 11.4343Z" fill="#D4D4D4"/>
</g>
<defs>
<clipPath id="clip0_9_743">
<rect width="12" height="12" fill="white" transform="translate(0 0.5)"/>
</clipPath>
</defs>
</svg>
