<svg width="13" height="13" viewBox="0 0 13 13" fill="none" xmlns="http://www.w3.org/2000/svg">
<path fill-rule="evenodd" clip-rule="evenodd" d="M6.50001 0C6.64669 0 6.78598 0.0644112 6.88098 0.176176L12.881 7.235C13.0072 7.38349 13.0356 7.5918 12.9538 7.76869C12.872 7.94558 12.6949 8.05882 12.5 8.05882H10.3333V12.5C10.3333 12.7761 10.1095 13 9.83334 13H7.83334C7.5572 13 7.33334 12.7761 7.33334 12.5V10.1765H5.66667V12.5C5.66667 12.7761 5.44282 13 5.16667 13H3.16667C2.89053 13 2.66667 12.7761 2.66667 12.5V8.05882H0.500007C0.305116 8.05882 0.127985 7.94558 0.0461831 7.76869C-0.0356191 7.5918 -0.00718367 7.38349 0.119037 7.235L6.11904 0.176176C6.21404 0.0644112 6.35332 0 6.50001 0ZM1.58123 7.05882H3.16667C3.44282 7.05882 3.66667 7.28268 3.66667 7.55882V12H4.66667V9.67647C4.66667 9.40033 4.89053 9.17647 5.16667 9.17647H7.83334C8.10948 9.17647 8.33334 9.40033 8.33334 9.67647V12H9.33334V7.55882C9.33334 7.28268 9.5572 7.05882 9.83334 7.05882H11.4188L6.50001 1.27202L1.58123 7.05882Z" fill="#D4D4D4"/>
</svg>
