<svg width="12" height="11" viewBox="0 0 12 11" fill="none" xmlns="http://www.w3.org/2000/svg">
<path d="M10.1487 2.35935H8.41039V1.33715C8.41039 0.875519 8.00724 0.5 7.5117 0.5H4.48832C3.99278 0.5 3.58963 0.875563 3.58963 1.33715V2.35935H1.85128C0.830483 2.35935 0 3.14092 0 4.10158V9.07689C0 9.86158 0.67835 10.5 1.51218 10.5H10.4878C11.3216 10.5 12 9.86161 12 9.07689V4.10158C12 3.14092 11.1695 2.35935 10.1487 2.35935ZM4.29489 1.33715C4.29489 1.23827 4.37805 1.16371 4.48832 1.16371H7.51168C7.62195 1.16371 7.70511 1.23827 7.70511 1.33715V2.35935H4.29489V1.33715ZM11.2947 9.07689C11.2947 9.49562 10.9328 9.83629 10.4878 9.83629H1.51218C1.06722 9.83629 0.705256 9.49562 0.705256 9.07689V5.97706C0.815694 6.04228 0.936444 6.09513 1.06601 6.1328C1.07276 6.13474 1.07955 6.13653 1.0864 6.13812L4.67894 6.96439V7.23732C4.67894 7.66584 5.04939 8.01447 5.50473 8.01447H6.49525C6.95059 8.01447 7.32104 7.66584 7.32104 7.23732V6.96439L10.9136 6.13812C10.9204 6.13655 10.9272 6.13479 10.934 6.1328C11.0635 6.09513 11.1843 6.04228 11.2947 5.97706V9.07689H11.2947ZM5.38422 7.23732V6.30096C5.38422 6.23841 5.43829 6.18752 5.50476 6.18752H6.49527C6.56174 6.1875 6.61581 6.23841 6.61581 6.30096V7.23732C6.61581 7.29988 6.56174 7.35076 6.49527 7.35076H5.50476C5.43829 7.35074 5.38422 7.29985 5.38422 7.23732ZM11.2947 4.77037C11.2947 5.104 11.0702 5.39442 10.735 5.49593L7.32055 6.28122C7.30937 5.86179 6.9436 5.52377 6.49527 5.52377H5.50476C5.05644 5.52377 4.69068 5.86181 4.67948 6.28122L1.26501 5.49595C0.929787 5.39442 0.705256 5.104 0.705256 4.77037V4.10158C0.705256 3.50688 1.21936 3.02307 1.85128 3.02307H10.1487C10.7806 3.02307 11.2947 3.50688 11.2947 4.10158V4.77037H11.2947Z" fill="#D4D4D4"/>
</svg>
